<svg xmlns="http://www.w3.org/2000/svg" version="1.1" style="font-family:Lato, &#x27;Helvetica Neue&#x27;, Helvetica, Arial, &#x27;Liberation Sans&#x27;, sans-serif;font-size:18px;background-color:white;text-rendering:geometricPrecision;-webkit-font-smoothing:antialiased" width="850" height="600" viewBox="0 0 850 600"><defs><pattern id="noDataPattern" patternUnits="userSpaceOnUse" width="4" height="4" patternTransform="rotate(-45 2 2)"><path d="M -1,2 l 6,0" stroke="#ccc" stroke-width="0.7"></path></pattern></defs><rect class="background-fill" fill="white" width="850" height="600"></rect><g class="HeaderView"><g transform="translate(774, 15) scale(0.29)"><svg className="owidLog" width="210" height="120" viewBox="0 0 210 120" fill="none" xmlns="http://www.w3.org/2000/svg">
<g clip-path="url(#clip0)">
  <path d="M0 0h210v107.89H0V0z" fill="#002147" />
  <path
    d="M40.98 32.25c0 2.36-.38 4.53-1.12 6.51a14.26 14.26 0 0 1-8.1 8.4c-1.9.78-4.02 1.17-6.34 1.17-2.31 0-4.42-.39-6.33-1.17a14.31 14.31 0 0 1-8.08-8.4 18.29 18.29 0 0 1-1.12-6.51c0-2.36.38-4.53 1.12-6.5.75-1.97 1.8-3.67 3.17-5.1a14.32 14.32 0 0 1 4.9-3.34c1.92-.8 4.03-1.19 6.34-1.19 2.32 0 4.43.4 6.34 1.19 1.92.8 3.56 1.9 4.93 3.34a14.87 14.87 0 0 1 3.17 5.1 18.1 18.1 0 0 1 1.12 6.5zm-4.38 0c0-1.94-.26-3.68-.8-5.22a10.91 10.91 0 0 0-2.24-3.89 9.68 9.68 0 0 0-3.52-2.46 11.95 11.95 0 0 0-4.62-.86c-1.68 0-3.21.28-4.6.86a9.88 9.88 0 0 0-3.54 2.46 10.91 10.91 0 0 0-2.24 3.9c-.53 1.53-.8 3.27-.8 5.2 0 1.94.27 3.68.8 5.22a11.17 11.17 0 0 0 2.24 3.9 10.01 10.01 0 0 0 3.55 2.44c1.38.56 2.9.83 4.6.83s3.24-.27 4.61-.83a9.8 9.8 0 0 0 3.52-2.44 11.17 11.17 0 0 0 2.25-3.9c.53-1.54.8-3.28.8-5.21zm26.22-6.54V48H60.5c-.56 0-.9-.27-1.05-.81l-.31-2.4a12.45 12.45 0 0 1-3.26 2.6c-1.2.64-2.58.96-4.13.96-1.22 0-2.3-.2-3.24-.6a6.52 6.52 0 0 1-2.33-1.7 7.37 7.37 0 0 1-1.43-2.67c-.3-1.04-.46-2.2-.46-3.45V25.7h3.91v14.22c0 1.68.38 2.99 1.15 3.91.77.93 1.96 1.39 3.54 1.39 1.16 0 2.24-.27 3.23-.82a10.42 10.42 0 0 0 2.8-2.28V25.7h3.91zm8.61 4.47a9.94 9.94 0 0 1 2.6-3.56 5.64 5.64 0 0 1 3.76-1.3c.47 0 .92.05 1.34.15.44.1.83.27 1.17.49l-.3 2.92c-.09.37-.3.55-.66.55-.2 0-.5-.04-.9-.13a6.21 6.21 0 0 0-3.24.18 4.23 4.23 0 0 0-1.47.92c-.42.4-.81.9-1.17 1.5-.33.58-.64 1.26-.92 2.02V48H67.7V25.71h2.25c.42 0 .72.08.88.25.16.16.27.44.33.83l.26 3.39zm61.16-13.7L122.75 48h-3.82l-7.99-24.05a21.95 21.95 0 0 1-.42-1.58 38.36 38.36 0 0 1-.44 1.58L102.05 48h-3.83L88.4 16.47h3.54c.38 0 .7.1.95.29.26.2.43.43.5.73l6.52 21.9.28 1.28.29 1.46.3-1.46.38-1.27 7.41-21.91c.1-.25.26-.48.51-.69.27-.22.58-.33.95-.33h1.23c.38 0 .69.1.92.29a1.77 1.77 0 0 1 .53.73l7.4 21.9a28.4 28.4 0 0 1 .68 2.62 29.52 29.52 0 0 1 .52-2.61l6.54-21.91a1.31 1.31 0 0 1 .48-.7c.27-.21.58-.32.95-.32h3.32zm9.35 8.88c1.63 0 3.1.27 4.4.82a9.43 9.43 0 0 1 5.46 5.94c.5 1.4.74 2.98.74 4.73 0 1.76-.25 3.34-.74 4.75a9.43 9.43 0 0 1-5.46 5.92c-1.3.52-2.77.79-4.4.79-1.64 0-3.12-.27-4.44-.8a9.42 9.42 0 0 1-3.35-2.3c-.92-1-1.63-2.2-2.13-3.61-.49-1.41-.73-3-.73-4.75s.24-3.33.73-4.73c.5-1.43 1.2-2.64 2.13-3.63.93-1 2.04-1.77 3.35-2.31 1.32-.55 2.8-.82 4.44-.82zm0 19.89c2.2 0 3.84-.73 4.93-2.2 1.08-1.48 1.63-3.54 1.63-6.18 0-2.66-.55-4.72-1.63-6.2-1.09-1.49-2.73-2.23-4.93-2.23-1.12 0-2.09.2-2.93.57a5.71 5.71 0 0 0-2.06 1.65c-.55.72-.96 1.61-1.24 2.67-.26 1.04-.4 2.22-.4 3.54 0 2.64.55 4.7 1.64 6.18 1.1 1.47 2.76 2.2 4.99 2.2zm17.97-15.07a9.94 9.94 0 0 1 2.6-3.56 5.64 5.64 0 0 1 3.76-1.3c.47 0 .91.05 1.34.15.44.1.83.27 1.16.49l-.28 2.92c-.09.37-.31.55-.66.55-.2 0-.5-.04-.9-.13a6.2 6.2 0 0 0-3.24.18 4.23 4.23 0 0 0-1.47.92c-.43.4-.82.9-1.17 1.5a13.1 13.1 0 0 0-.92 2.02V48h-3.94V25.71h2.24c.43 0 .72.08.88.25.17.16.28.44.33.83l.27 3.39zm15.04-14.59V48h-3.92V15.6h3.92zm19.55 15.43a6.22 6.22 0 0 0-2.38-2.05 6.7 6.7 0 0 0-2.86-.6c-2.07 0-3.66.75-4.77 2.23-1.12 1.48-1.68 3.6-1.68 6.33 0 1.46.13 2.7.38 3.74a7.29 7.29 0 0 0 1.1 2.56 4.35 4.35 0 0 0 1.78 1.45c.7.3 1.5.46 2.4.46 1.29 0 2.41-.3 3.36-.88a9.6 9.6 0 0 0 2.67-2.49V31.02zm3.91-15.43V48h-2.33c-.56 0-.9-.27-1.06-.81l-.35-2.71a12.13 12.13 0 0 1-3.25 2.77 8.28 8.28 0 0 1-4.23 1.06 7.31 7.31 0 0 1-6.14-2.9c-.73-.96-1.3-2.15-1.69-3.57a18.35 18.35 0 0 1 .07-9.48 11.29 11.29 0 0 1 1.89-3.7 8.7 8.7 0 0 1 7.06-3.34 7.96 7.96 0 0 1 6.12 2.62V15.59h3.91zM46.61 70.71V93H42.7V70.71h3.91zm.84-7c0 .39-.08.75-.24 1.09-.15.32-.35.61-.62.88-.25.25-.55.44-.9.59a2.67 2.67 0 0 1-2.16 0 2.9 2.9 0 0 1-1.45-1.47 2.67 2.67 0 0 1 0-2.16c.15-.35.35-.65.6-.9.25-.27.53-.47.85-.62a2.67 2.67 0 0 1 2.16 0c.35.15.65.35.9.62.27.25.47.55.62.9.16.34.24.7.24 1.08zm7.97 10.24c.49-.54 1-1.04 1.54-1.48a9.85 9.85 0 0 1 3.66-1.84 8.96 8.96 0 0 1 5.43.35c.94.4 1.72.97 2.33 1.71.63.74 1.11 1.62 1.43 2.67.32 1.04.49 2.19.49 3.45V93h-3.94V78.81c0-1.69-.4-3-1.17-3.92-.76-.93-1.93-1.4-3.5-1.4-1.15 0-2.24.27-3.25.83-1 .56-1.92 1.31-2.77 2.27V93h-3.94V70.71h2.35c.56 0 .9.28 1.04.82l.3 2.42zm57.7 3.3c0 2.36-.37 4.5-1.11 6.44a14.3 14.3 0 0 1-3.17 4.98c-1.37 1.37-3 2.45-4.93 3.2-1.9.76-4.02 1.13-6.33 1.13H85.8V61.47h11.77c2.31 0 4.42.39 6.33 1.15a13.8 13.8 0 0 1 8.1 8.18 17.75 17.75 0 0 1 1.12 6.45zm-4.37 0c0-1.94-.26-3.67-.8-5.2a10.94 10.94 0 0 0-2.23-3.87 9.57 9.57 0 0 0-3.53-2.42 12.23 12.23 0 0 0-4.61-.83h-7.5v24.62h7.5c1.7 0 3.24-.28 4.61-.84a9.7 9.7 0 0 0 3.53-2.4 10.94 10.94 0 0 0 2.24-3.87c.53-1.53.8-3.26.8-5.2zm19.8 5.72c-1.8.06-3.34.2-4.62.44-1.26.22-2.3.51-3.1.88-.8.36-1.37.8-1.74 1.3-.35.5-.53 1.05-.53 1.67 0 .58.1 1.1.3 1.52a3 3 0 0 0 .76 1.05c.34.27.73.46 1.17.6a6.13 6.13 0 0 0 1.45.17 7.28 7.28 0 0 0 3.5-.81 11.95 11.95 0 0 0 2.82-2.2v-4.62zm-12.65-9.11a12.73 12.73 0 0 1 3.98-2.66c1.43-.59 3-.88 4.73-.88 1.25 0 2.36.2 3.33.61a6.81 6.81 0 0 1 3.94 4.38c.33 1.04.5 2.19.5 3.43V93h-1.74a1.8 1.8 0 0 1-.88-.18c-.2-.13-.36-.38-.48-.74l-.44-2.12-1.72 1.46a9.48 9.48 0 0 1-3.74 1.7c-.69.15-1.46.23-2.3.23-.87 0-1.69-.12-2.45-.35a5.34 5.34 0 0 1-3.34-2.93 6.64 6.64 0 0 1-.49-2.64c0-.88.25-1.72.73-2.53a6.33 6.33 0 0 1 2.35-2.17c1.09-.63 2.5-1.15 4.25-1.54 1.75-.41 3.89-.65 6.42-.7v-1.75c0-1.73-.37-3.03-1.12-3.91-.75-.9-1.84-1.34-3.28-1.34-.97 0-1.78.12-2.44.37-.64.23-1.2.5-1.7.81l-1.23.82c-.33.23-.67.35-1 .35-.27 0-.5-.07-.69-.2a2.1 2.1 0 0 1-.48-.53l-.7-1.25zm27.67 19.5c-1.76 0-3.12-.5-4.07-1.48-.94-.98-1.41-2.4-1.41-4.25V74h-2.68a.9.9 0 0 1-.6-.2c-.16-.14-.24-.36-.24-.66v-1.56l3.65-.46.9-6.89c.05-.22.14-.4.29-.52a.88.88 0 0 1 .62-.22H142v7.67h6.44V74H142v13.38c0 .94.22 1.63.68 2.09.45.45 1.04.68 1.76.68a3.21 3.21 0 0 0 1.85-.53l.55-.35c.16-.12.3-.18.41-.18.2 0 .4.13.55.38l1.15 1.87a7.45 7.45 0 0 1-2.44 1.5 8.53 8.53 0 0 1-2.95.52zm19.68-10.4c-1.8.07-3.34.21-4.62.45-1.26.22-2.3.51-3.1.88-.8.36-1.37.8-1.74 1.3-.35.5-.53 1.05-.53 1.67 0 .58.1 1.1.3 1.52a2.9 2.9 0 0 0 .76 1.05c.34.27.73.46 1.17.6a6.13 6.13 0 0 0 1.45.17 7.3 7.3 0 0 0 3.5-.81 12.04 12.04 0 0 0 2.82-2.2v-4.62zm-12.65-9.1a12.72 12.72 0 0 1 3.99-2.66c1.42-.59 3-.88 4.72-.88 1.25 0 2.36.2 3.33.61a6.81 6.81 0 0 1 3.94 4.38c.33 1.04.5 2.19.5 3.43V93h-1.74a1.8 1.8 0 0 1-.88-.18c-.2-.13-.36-.38-.48-.74l-.44-2.12-1.72 1.46a9.48 9.48 0 0 1-3.74 1.7c-.69.15-1.46.23-2.3.23-.87 0-1.69-.12-2.45-.35a5.33 5.33 0 0 1-3.34-2.93 6.62 6.62 0 0 1-.49-2.64c0-.88.25-1.72.73-2.53a6.33 6.33 0 0 1 2.35-2.17c1.09-.63 2.5-1.15 4.25-1.54 1.74-.41 3.89-.65 6.42-.7v-1.75c0-1.73-.37-3.03-1.12-3.91-.75-.9-1.84-1.34-3.28-1.34-.97 0-1.78.12-2.44.37-.64.23-1.2.5-1.7.81l-1.22.82c-.34.23-.68.35-1.02.35-.26 0-.49-.07-.68-.2a1.88 1.88 0 0 1-.48-.53l-.7-1.25zM40.98 32.25c0 2.36-.38 4.53-1.12 6.51a14.26 14.26 0 0 1-8.1 8.4c-1.9.78-4.02 1.17-6.34 1.17-2.31 0-4.42-.39-6.33-1.17a14.31 14.31 0 0 1-8.08-8.4 18.29 18.29 0 0 1-1.12-6.51c0-2.36.38-4.53 1.12-6.5.75-1.97 1.8-3.67 3.17-5.1a14.32 14.32 0 0 1 4.9-3.34c1.92-.8 4.03-1.19 6.34-1.19 2.32 0 4.43.4 6.34 1.19 1.92.8 3.56 1.9 4.93 3.34a14.87 14.87 0 0 1 3.17 5.1 18.1 18.1 0 0 1 1.12 6.5zm-4.38 0c0-1.94-.26-3.68-.8-5.22a10.91 10.91 0 0 0-2.24-3.89 9.68 9.68 0 0 0-3.52-2.46 11.95 11.95 0 0 0-4.62-.86c-1.68 0-3.21.28-4.6.86a9.88 9.88 0 0 0-3.54 2.46 10.91 10.91 0 0 0-2.24 3.9c-.53 1.53-.8 3.27-.8 5.2 0 1.94.27 3.68.8 5.22a11.17 11.17 0 0 0 2.24 3.9 10.01 10.01 0 0 0 3.55 2.44c1.38.56 2.9.83 4.6.83s3.24-.27 4.61-.83a9.8 9.8 0 0 0 3.52-2.44 11.17 11.17 0 0 0 2.25-3.9c.53-1.54.8-3.28.8-5.21zm26.22-6.54V48H60.5c-.56 0-.9-.27-1.05-.81l-.31-2.4a12.45 12.45 0 0 1-3.26 2.6c-1.2.64-2.58.96-4.13.96-1.22 0-2.3-.2-3.24-.6a6.52 6.52 0 0 1-2.33-1.7 7.37 7.37 0 0 1-1.43-2.67c-.3-1.04-.46-2.2-.46-3.45V25.7h3.91v14.22c0 1.68.38 2.99 1.15 3.91.77.93 1.96 1.39 3.54 1.39 1.16 0 2.24-.27 3.23-.82a10.42 10.42 0 0 0 2.8-2.28V25.7h3.91zm8.61 4.47a9.94 9.94 0 0 1 2.6-3.56 5.64 5.64 0 0 1 3.76-1.3c.47 0 .92.05 1.34.15.44.1.83.27 1.17.49l-.3 2.92c-.09.37-.3.55-.66.55-.2 0-.5-.04-.9-.13a6.21 6.21 0 0 0-3.24.18 4.23 4.23 0 0 0-1.47.92c-.42.4-.81.9-1.17 1.5-.33.58-.64 1.26-.92 2.02V48H67.7V25.71h2.25c.42 0 .72.08.88.25.16.16.27.44.33.83l.26 3.39zm61.16-13.7L122.75 48h-3.82l-7.99-24.05a21.95 21.95 0 0 1-.42-1.58 38.36 38.36 0 0 1-.44 1.58L102.05 48h-3.83L88.4 16.47h3.54c.38 0 .7.1.95.29.26.2.43.43.5.73l6.52 21.9.28 1.28.29 1.46.3-1.46.38-1.27 7.41-21.91c.1-.25.26-.48.51-.69.27-.22.58-.33.95-.33h1.23c.38 0 .69.1.92.29a1.77 1.77 0 0 1 .53.73l7.4 21.9a28.4 28.4 0 0 1 .68 2.62 29.52 29.52 0 0 1 .52-2.61l6.54-21.91a1.31 1.31 0 0 1 .48-.7c.27-.21.58-.32.95-.32h3.32zm9.35 8.88c1.63 0 3.1.27 4.4.82a9.43 9.43 0 0 1 5.46 5.94c.5 1.4.74 2.98.74 4.73 0 1.76-.25 3.34-.74 4.75a9.43 9.43 0 0 1-5.46 5.92c-1.3.52-2.77.79-4.4.79-1.64 0-3.12-.27-4.44-.8a9.42 9.42 0 0 1-3.35-2.3c-.92-1-1.63-2.2-2.13-3.61-.49-1.41-.73-3-.73-4.75s.24-3.33.73-4.73c.5-1.43 1.2-2.64 2.13-3.63.93-1 2.04-1.77 3.35-2.31 1.32-.55 2.8-.82 4.44-.82zm0 19.89c2.2 0 3.84-.73 4.93-2.2 1.08-1.48 1.63-3.54 1.63-6.18 0-2.66-.55-4.72-1.63-6.2-1.09-1.49-2.73-2.23-4.93-2.23-1.12 0-2.09.2-2.93.57a5.71 5.71 0 0 0-2.06 1.65c-.55.72-.96 1.61-1.24 2.67-.26 1.04-.4 2.22-.4 3.54 0 2.64.55 4.7 1.64 6.18 1.1 1.47 2.76 2.2 4.99 2.2zm17.97-15.07a9.94 9.94 0 0 1 2.6-3.56 5.64 5.64 0 0 1 3.76-1.3c.47 0 .91.05 1.34.15.44.1.83.27 1.16.49l-.28 2.92c-.09.37-.31.55-.66.55-.2 0-.5-.04-.9-.13a6.2 6.2 0 0 0-3.24.18 4.23 4.23 0 0 0-1.47.92c-.43.4-.82.9-1.17 1.5a13.1 13.1 0 0 0-.92 2.02V48h-3.94V25.71h2.24c.43 0 .72.08.88.25.17.16.28.44.33.83l.27 3.39zm15.04-14.59V48h-3.92V15.6h3.92zm19.55 15.43a6.22 6.22 0 0 0-2.38-2.05 6.7 6.7 0 0 0-2.86-.6c-2.07 0-3.66.75-4.77 2.23-1.12 1.48-1.68 3.6-1.68 6.33 0 1.46.13 2.7.38 3.74a7.29 7.29 0 0 0 1.1 2.56 4.35 4.35 0 0 0 1.78 1.45c.7.3 1.5.46 2.4.46 1.29 0 2.41-.3 3.36-.88a9.6 9.6 0 0 0 2.67-2.49V31.02zm3.91-15.43V48h-2.33c-.56 0-.9-.27-1.06-.81l-.35-2.71a12.13 12.13 0 0 1-3.25 2.77 8.28 8.28 0 0 1-4.23 1.06 7.31 7.31 0 0 1-6.14-2.9c-.73-.96-1.3-2.15-1.69-3.57a18.35 18.35 0 0 1 .07-9.48 11.29 11.29 0 0 1 1.89-3.7 8.7 8.7 0 0 1 7.06-3.34 7.96 7.96 0 0 1 6.12 2.62V15.59h3.91zM46.61 70.71V93H42.7V70.71h3.91zm.84-7c0 .39-.08.75-.24 1.09-.15.32-.35.61-.62.88-.25.25-.55.44-.9.59a2.67 2.67 0 0 1-2.16 0 2.9 2.9 0 0 1-1.45-1.47 2.67 2.67 0 0 1 0-2.16c.15-.35.35-.65.6-.9.25-.27.53-.47.85-.62a2.67 2.67 0 0 1 2.16 0c.35.15.65.35.9.62.27.25.47.55.62.9.16.34.24.7.24 1.08zm7.97 10.24c.49-.54 1-1.04 1.54-1.48a9.85 9.85 0 0 1 3.66-1.84 8.96 8.96 0 0 1 5.43.35c.94.4 1.72.97 2.33 1.71.63.74 1.11 1.62 1.43 2.67.32 1.04.49 2.19.49 3.45V93h-3.94V78.81c0-1.69-.4-3-1.17-3.92-.76-.93-1.93-1.4-3.5-1.4-1.15 0-2.24.27-3.25.83-1 .56-1.92 1.31-2.77 2.27V93h-3.94V70.71h2.35c.56 0 .9.28 1.04.82l.3 2.42zm57.7 3.3c0 2.36-.37 4.5-1.11 6.44a14.3 14.3 0 0 1-3.17 4.98c-1.37 1.37-3 2.45-4.93 3.2-1.9.76-4.02 1.13-6.33 1.13H85.8V61.47h11.77c2.31 0 4.42.39 6.33 1.15a13.8 13.8 0 0 1 8.1 8.18 17.75 17.75 0 0 1 1.12 6.45zm-4.37 0c0-1.94-.26-3.67-.8-5.2a10.94 10.94 0 0 0-2.23-3.87 9.57 9.57 0 0 0-3.53-2.42 12.23 12.23 0 0 0-4.61-.83h-7.5v24.62h7.5c1.7 0 3.24-.28 4.61-.84a9.7 9.7 0 0 0 3.53-2.4 10.94 10.94 0 0 0 2.24-3.87c.53-1.53.8-3.26.8-5.2zm19.8 5.72c-1.8.06-3.34.2-4.62.44-1.26.22-2.3.51-3.1.88-.8.36-1.37.8-1.74 1.3-.35.5-.53 1.05-.53 1.67 0 .58.1 1.1.3 1.52a3 3 0 0 0 .76 1.05c.34.27.73.46 1.17.6a6.13 6.13 0 0 0 1.45.17 7.28 7.28 0 0 0 3.5-.81 11.95 11.95 0 0 0 2.82-2.2v-4.62zm-12.65-9.11a12.73 12.73 0 0 1 3.98-2.66c1.43-.59 3-.88 4.73-.88 1.25 0 2.36.2 3.33.61a6.81 6.81 0 0 1 3.94 4.38c.33 1.04.5 2.19.5 3.43V93h-1.74a1.8 1.8 0 0 1-.88-.18c-.2-.13-.36-.38-.48-.74l-.44-2.12-1.72 1.46a9.48 9.48 0 0 1-3.74 1.7c-.69.15-1.46.23-2.3.23-.87 0-1.69-.12-2.45-.35a5.34 5.34 0 0 1-3.34-2.93 6.64 6.64 0 0 1-.49-2.64c0-.88.25-1.72.73-2.53a6.33 6.33 0 0 1 2.35-2.17c1.09-.63 2.5-1.15 4.25-1.54 1.75-.41 3.89-.65 6.42-.7v-1.75c0-1.73-.37-3.03-1.12-3.91-.75-.9-1.84-1.34-3.28-1.34-.97 0-1.78.12-2.44.37-.64.23-1.2.5-1.7.81l-1.23.82c-.33.23-.67.35-1 .35-.27 0-.5-.07-.69-.2a2.1 2.1 0 0 1-.48-.53l-.7-1.25zm27.67 19.5c-1.76 0-3.12-.5-4.07-1.48-.94-.98-1.41-2.4-1.41-4.25V74h-2.68a.9.9 0 0 1-.6-.2c-.16-.14-.24-.36-.24-.66v-1.56l3.65-.46.9-6.89c.05-.22.14-.4.29-.52a.88.88 0 0 1 .62-.22H142v7.67h6.44V74H142v13.38c0 .94.22 1.63.68 2.09.45.45 1.04.68 1.76.68a3.21 3.21 0 0 0 1.85-.53l.55-.35c.16-.12.3-.18.41-.18.2 0 .4.13.55.38l1.15 1.87a7.45 7.45 0 0 1-2.44 1.5 8.53 8.53 0 0 1-2.95.52zm19.68-10.4c-1.8.07-3.34.21-4.62.45-1.26.22-2.3.51-3.1.88-.8.36-1.37.8-1.74 1.3-.35.5-.53 1.05-.53 1.67 0 .58.1 1.1.3 1.52a2.9 2.9 0 0 0 .76 1.05c.34.27.73.46 1.17.6a6.13 6.13 0 0 0 1.45.17 7.3 7.3 0 0 0 3.5-.81 12.04 12.04 0 0 0 2.82-2.2v-4.62zm-12.65-9.1a12.72 12.72 0 0 1 3.99-2.66c1.42-.59 3-.88 4.72-.88 1.25 0 2.36.2 3.33.61a6.81 6.81 0 0 1 3.94 4.38c.33 1.04.5 2.19.5 3.43V93h-1.74a1.8 1.8 0 0 1-.88-.18c-.2-.13-.36-.38-.48-.74l-.44-2.12-1.72 1.46a9.48 9.48 0 0 1-3.74 1.7c-.69.15-1.46.23-2.3.23-.87 0-1.69-.12-2.45-.35a5.33 5.33 0 0 1-3.34-2.93 6.62 6.62 0 0 1-.49-2.64c0-.88.25-1.72.73-2.53a6.33 6.33 0 0 1 2.35-2.17c1.09-.63 2.5-1.15 4.25-1.54 1.74-.41 3.89-.65 6.42-.7v-1.75c0-1.73-.37-3.03-1.12-3.91-.75-.9-1.84-1.34-3.28-1.34-.97 0-1.78.12-2.44.37-.64.23-1.2.5-1.7.81l-1.22.82c-.34.23-.68.35-1.02.35-.26 0-.49-.07-.68-.2a1.88 1.88 0 0 1-.48-.53l-.7-1.25zM40.98 32.25c0 2.36-.38 4.53-1.12 6.51a14.26 14.26 0 0 1-8.1 8.4c-1.9.78-4.02 1.17-6.34 1.17-2.31 0-4.42-.39-6.33-1.17a14.31 14.31 0 0 1-8.08-8.4 18.29 18.29 0 0 1-1.12-6.51c0-2.36.38-4.53 1.12-6.5.75-1.97 1.8-3.67 3.17-5.1a14.32 14.32 0 0 1 4.9-3.34c1.92-.8 4.03-1.19 6.34-1.19 2.32 0 4.43.4 6.34 1.19 1.92.8 3.56 1.9 4.93 3.34a14.87 14.87 0 0 1 3.17 5.1 18.1 18.1 0 0 1 1.12 6.5zm-4.38 0c0-1.94-.26-3.68-.8-5.22a10.91 10.91 0 0 0-2.24-3.89 9.68 9.68 0 0 0-3.52-2.46 11.95 11.95 0 0 0-4.62-.86c-1.68 0-3.21.28-4.6.86a9.88 9.88 0 0 0-3.54 2.46 10.91 10.91 0 0 0-2.24 3.9c-.53 1.53-.8 3.27-.8 5.2 0 1.94.27 3.68.8 5.22a11.17 11.17 0 0 0 2.24 3.9 10.01 10.01 0 0 0 3.55 2.44c1.38.56 2.9.83 4.6.83s3.24-.27 4.61-.83a9.8 9.8 0 0 0 3.52-2.44 11.17 11.17 0 0 0 2.25-3.9c.53-1.54.8-3.28.8-5.21zm26.22-6.54V48H60.5c-.56 0-.9-.27-1.05-.81l-.31-2.4a12.45 12.45 0 0 1-3.26 2.6c-1.2.64-2.58.96-4.13.96-1.22 0-2.3-.2-3.24-.6a6.52 6.52 0 0 1-2.33-1.7 7.37 7.37 0 0 1-1.43-2.67c-.3-1.04-.46-2.2-.46-3.45V25.7h3.91v14.22c0 1.68.38 2.99 1.15 3.91.77.93 1.96 1.39 3.54 1.39 1.16 0 2.24-.27 3.23-.82a10.42 10.42 0 0 0 2.8-2.28V25.7h3.91zm8.61 4.47a9.94 9.94 0 0 1 2.6-3.56 5.64 5.64 0 0 1 3.76-1.3c.47 0 .92.05 1.34.15.44.1.83.27 1.17.49l-.3 2.92c-.09.37-.3.55-.66.55-.2 0-.5-.04-.9-.13a6.21 6.21 0 0 0-3.24.18 4.23 4.23 0 0 0-1.47.92c-.42.4-.81.9-1.17 1.5-.33.58-.64 1.26-.92 2.02V48H67.7V25.71h2.25c.42 0 .72.08.88.25.16.16.27.44.33.83l.26 3.39zm61.16-13.7L122.75 48h-3.82l-7.99-24.05a21.95 21.95 0 0 1-.42-1.58 38.36 38.36 0 0 1-.44 1.58L102.05 48h-3.83L88.4 16.47h3.54c.38 0 .7.1.95.29.26.2.43.43.5.73l6.52 21.9.28 1.28.29 1.46.3-1.46.38-1.27 7.41-21.91c.1-.25.26-.48.51-.69.27-.22.58-.33.95-.33h1.23c.38 0 .69.1.92.29a1.77 1.77 0 0 1 .53.73l7.4 21.9a28.4 28.4 0 0 1 .68 2.62 29.52 29.52 0 0 1 .52-2.61l6.54-21.91a1.31 1.31 0 0 1 .48-.7c.27-.21.58-.32.95-.32h3.32zm9.35 8.88c1.63 0 3.1.27 4.4.82a9.43 9.43 0 0 1 5.46 5.94c.5 1.4.74 2.98.74 4.73 0 1.76-.25 3.34-.74 4.75a9.43 9.43 0 0 1-5.46 5.92c-1.3.52-2.77.79-4.4.79-1.64 0-3.12-.27-4.44-.8a9.42 9.42 0 0 1-3.35-2.3c-.92-1-1.63-2.2-2.13-3.61-.49-1.41-.73-3-.73-4.75s.24-3.33.73-4.73c.5-1.43 1.2-2.64 2.13-3.63.93-1 2.04-1.77 3.35-2.31 1.32-.55 2.8-.82 4.44-.82zm0 19.89c2.2 0 3.84-.73 4.93-2.2 1.08-1.48 1.63-3.54 1.63-6.18 0-2.66-.55-4.72-1.63-6.2-1.09-1.49-2.73-2.23-4.93-2.23-1.12 0-2.09.2-2.93.57a5.71 5.71 0 0 0-2.06 1.65c-.55.72-.96 1.61-1.24 2.67-.26 1.04-.4 2.22-.4 3.54 0 2.64.55 4.7 1.64 6.18 1.1 1.47 2.76 2.2 4.99 2.2zm17.97-15.07a9.94 9.94 0 0 1 2.6-3.56 5.64 5.64 0 0 1 3.76-1.3c.47 0 .91.05 1.34.15.44.1.83.27 1.16.49l-.28 2.92c-.09.37-.31.55-.66.55-.2 0-.5-.04-.9-.13a6.2 6.2 0 0 0-3.24.18 4.23 4.23 0 0 0-1.47.92c-.43.4-.82.9-1.17 1.5a13.1 13.1 0 0 0-.92 2.02V48h-3.94V25.71h2.24c.43 0 .72.08.88.25.17.16.28.44.33.83l.27 3.39zm15.04-14.59V48h-3.92V15.6h3.92zm19.55 15.43a6.22 6.22 0 0 0-2.38-2.05 6.7 6.7 0 0 0-2.86-.6c-2.07 0-3.66.75-4.77 2.23-1.12 1.48-1.68 3.6-1.68 6.33 0 1.46.13 2.7.38 3.74a7.29 7.29 0 0 0 1.1 2.56 4.35 4.35 0 0 0 1.78 1.45c.7.3 1.5.46 2.4.46 1.29 0 2.41-.3 3.36-.88a9.6 9.6 0 0 0 2.67-2.49V31.02zm3.91-15.43V48h-2.33c-.56 0-.9-.27-1.06-.81l-.35-2.71a12.13 12.13 0 0 1-3.25 2.77 8.28 8.28 0 0 1-4.23 1.06 7.31 7.31 0 0 1-6.14-2.9c-.73-.96-1.3-2.15-1.69-3.57a18.35 18.35 0 0 1 .07-9.48 11.29 11.29 0 0 1 1.89-3.7 8.7 8.7 0 0 1 7.06-3.34 7.96 7.96 0 0 1 6.12 2.62V15.59h3.91zM46.61 70.71V93H42.7V70.71h3.91zm.84-7c0 .39-.08.75-.24 1.09-.15.32-.35.61-.62.88-.25.25-.55.44-.9.59a2.67 2.67 0 0 1-2.16 0 2.9 2.9 0 0 1-1.45-1.47 2.67 2.67 0 0 1 0-2.16c.15-.35.35-.65.6-.9.25-.27.53-.47.85-.62a2.67 2.67 0 0 1 2.16 0c.35.15.65.35.9.62.27.25.47.55.62.9.16.34.24.7.24 1.08zm7.97 10.24c.49-.54 1-1.04 1.54-1.48a9.85 9.85 0 0 1 3.66-1.84 8.96 8.96 0 0 1 5.43.35c.94.4 1.72.97 2.33 1.71.63.74 1.11 1.62 1.43 2.67.32 1.04.49 2.19.49 3.45V93h-3.94V78.81c0-1.69-.4-3-1.17-3.92-.76-.93-1.93-1.4-3.5-1.4-1.15 0-2.24.27-3.25.83-1 .56-1.92 1.31-2.77 2.27V93h-3.94V70.71h2.35c.56 0 .9.28 1.04.82l.3 2.42zm57.7 3.3c0 2.36-.37 4.5-1.11 6.44a14.3 14.3 0 0 1-3.17 4.98c-1.37 1.37-3 2.45-4.93 3.2-1.9.76-4.02 1.13-6.33 1.13H85.8V61.47h11.77c2.31 0 4.42.39 6.33 1.15a13.8 13.8 0 0 1 8.1 8.18 17.75 17.75 0 0 1 1.12 6.45zm-4.37 0c0-1.94-.26-3.67-.8-5.2a10.94 10.94 0 0 0-2.23-3.87 9.57 9.57 0 0 0-3.53-2.42 12.23 12.23 0 0 0-4.61-.83h-7.5v24.62h7.5c1.7 0 3.24-.28 4.61-.84a9.7 9.7 0 0 0 3.53-2.4 10.94 10.94 0 0 0 2.24-3.87c.53-1.53.8-3.26.8-5.2zm19.8 5.72c-1.8.06-3.34.2-4.62.44-1.26.22-2.3.51-3.1.88-.8.36-1.37.8-1.74 1.3-.35.5-.53 1.05-.53 1.67 0 .58.1 1.1.3 1.52a3 3 0 0 0 .76 1.05c.34.27.73.46 1.17.6a6.13 6.13 0 0 0 1.45.17 7.28 7.28 0 0 0 3.5-.81 11.95 11.95 0 0 0 2.82-2.2v-4.62zm-12.65-9.11a12.73 12.73 0 0 1 3.98-2.66c1.43-.59 3-.88 4.73-.88 1.25 0 2.36.2 3.33.61a6.81 6.81 0 0 1 3.94 4.38c.33 1.04.5 2.19.5 3.43V93h-1.74a1.8 1.8 0 0 1-.88-.18c-.2-.13-.36-.38-.48-.74l-.44-2.12-1.72 1.46a9.48 9.48 0 0 1-3.74 1.7c-.69.15-1.46.23-2.3.23-.87 0-1.69-.12-2.45-.35a5.34 5.34 0 0 1-3.34-2.93 6.64 6.64 0 0 1-.49-2.64c0-.88.25-1.72.73-2.53a6.33 6.33 0 0 1 2.35-2.17c1.09-.63 2.5-1.15 4.25-1.54 1.75-.41 3.89-.65 6.42-.7v-1.75c0-1.73-.37-3.03-1.12-3.91-.75-.9-1.84-1.34-3.28-1.34-.97 0-1.78.12-2.44.37-.64.23-1.2.5-1.7.81l-1.23.82c-.33.23-.67.35-1 .35-.27 0-.5-.07-.69-.2a2.1 2.1 0 0 1-.48-.53l-.7-1.25zm27.67 19.5c-1.76 0-3.12-.5-4.07-1.48-.94-.98-1.41-2.4-1.41-4.25V74h-2.68a.9.9 0 0 1-.6-.2c-.16-.14-.24-.36-.24-.66v-1.56l3.65-.46.9-6.89c.05-.22.14-.4.29-.52a.88.88 0 0 1 .62-.22H142v7.67h6.44V74H142v13.38c0 .94.22 1.63.68 2.09.45.45 1.04.68 1.76.68a3.21 3.21 0 0 0 1.85-.53l.55-.35c.16-.12.3-.18.41-.18.2 0 .4.13.55.38l1.15 1.87a7.45 7.45 0 0 1-2.44 1.5 8.53 8.53 0 0 1-2.95.52zm19.68-10.4c-1.8.07-3.34.21-4.62.45-1.26.22-2.3.51-3.1.88-.8.36-1.37.8-1.74 1.3-.35.5-.53 1.05-.53 1.67 0 .58.1 1.1.3 1.52a2.9 2.9 0 0 0 .76 1.05c.34.27.73.46 1.17.6a6.13 6.13 0 0 0 1.45.17 7.3 7.3 0 0 0 3.5-.81 12.04 12.04 0 0 0 2.82-2.2v-4.62zm-12.65-9.1a12.72 12.72 0 0 1 3.99-2.66c1.42-.59 3-.88 4.72-.88 1.25 0 2.36.2 3.33.61a6.81 6.81 0 0 1 3.94 4.38c.33 1.04.5 2.19.5 3.43V93h-1.74a1.8 1.8 0 0 1-.88-.18c-.2-.13-.36-.38-.48-.74l-.44-2.12-1.72 1.46a9.48 9.48 0 0 1-3.74 1.7c-.69.15-1.46.23-2.3.23-.87 0-1.69-.12-2.45-.35a5.33 5.33 0 0 1-3.34-2.93 6.62 6.62 0 0 1-.49-2.64c0-.88.25-1.72.73-2.53a6.33 6.33 0 0 1 2.35-2.17c1.09-.63 2.5-1.15 4.25-1.54 1.74-.41 3.89-.65 6.42-.7v-1.75c0-1.73-.37-3.03-1.12-3.91-.75-.9-1.84-1.34-3.28-1.34-.97 0-1.78.12-2.44.37-.64.23-1.2.5-1.7.81l-1.22.82c-.34.23-.68.35-1.02.35-.26 0-.49-.07-.68-.2a1.88 1.88 0 0 1-.48-.53l-.7-1.25z"
    fill="#fff"
  />
  <path fill="#D42B21" d="M0 106.79h210V120H0z" />
</g>
<defs>
  <clipPath id="clip0"><path fill="#fff" d="M0 0h210v120H0z" /></clipPath>
</defs>
</svg></g><a href="https://ourworldindata.org/grapher/pesticide-breakdown-by-type" style="font-family:&#x27;Playfair Display&#x27;, Georgia, &#x27;Times New Roman&#x27;, &#x27;Liberation Serif&#x27;, serif" target="_blank" rel="noopener"><text font-size="25.20" x="15.0" y="36.9" fill="#555"><tspan x="15" y="36.924">Pesticide breakdown by type, World, 1990 to 2019</tspan></text></a><text x="15.0" y="58.2" style="font-size:14.4px;line-height:1.2" fill="#666"><tspan x="15" y="58.2">Pesticide use, broken down by product type, measured in tonnes of active ingredient.</tspan></text></g><g class="StackedArea"><defs><clipPath id="boundsClip-3"><rect x="102.134" y="77.48" width="820" height="937.3199999999999"></rect></clipPath></defs><rect x="15" y="77.48" width="820" height="468.65999999999997" fill="transparent"></rect><g class="DualAxisView"><g class="HorizontalAxis"><line x1="102.1" y1="524.9399999999999" x2="102.1" y2="529.9399999999999" stroke="#999"></line><line x1="702.1" y1="524.9399999999999" x2="702.1" y2="529.9399999999999" stroke="#999"></line><line x1="205.6" y1="524.9399999999999" x2="205.6" y2="529.9399999999999" stroke="#999"></line><line x1="309" y1="524.9399999999999" x2="309" y2="529.9399999999999" stroke="#999"></line><line x1="412.5" y1="524.9399999999999" x2="412.5" y2="529.9399999999999" stroke="#999"></line><line x1="515.9" y1="524.9399999999999" x2="515.9" y2="529.9399999999999" stroke="#999"></line><line x1="619.4" y1="524.9399999999999" x2="619.4" y2="529.9399999999999" stroke="#999"></line><text x="102.134" y="546.14" fill="#666" text-anchor="start" font-size="16.2">1990</text><text x="702.125" y="546.14" fill="#666" text-anchor="end" font-size="16.2">2019</text><text x="205.6" y="546.14" fill="#666" text-anchor="middle" font-size="16.2">1995</text><text x="309" y="546.14" fill="#666" text-anchor="middle" font-size="16.2">2000</text><text x="412.5" y="546.14" fill="#666" text-anchor="middle" font-size="16.2">2005</text><text x="515.9" y="546.14" fill="#666" text-anchor="middle" font-size="16.2">2010</text><text x="619.4" y="546.14" fill="#666" text-anchor="middle" font-size="16.2">2015</text></g><g class="VerticalAxis"><text x="97.13" y="524.9" dy=".32em" text-anchor="end" fill="#666" font-size="16.2">0 t</text><text x="97.13" y="469.9" dy=".32em" text-anchor="end" fill="#666" font-size="16.2">500,000 t</text><text x="97.13" y="414.9" dy=".32em" text-anchor="end" fill="#666" font-size="16.2">1 million t</text><text x="97.13" y="359.9" dy=".32em" text-anchor="end" fill="#666" font-size="16.2">1.5 million t</text><text x="97.13" y="304.8" dy=".32em" text-anchor="end" fill="#666" font-size="16.2">2 million t</text><text x="97.13" y="249.8" dy=".32em" text-anchor="end" fill="#666" font-size="16.2">2.5 million t</text><text x="97.13" y="194.8" dy=".32em" text-anchor="end" fill="#666" font-size="16.2">3 million t</text><text x="97.13" y="139.7" dy=".32em" text-anchor="end" fill="#666" font-size="16.2">3.5 million t</text><text x="97.13" y="84.7" dy=".32em" text-anchor="end" fill="#666" font-size="16.2">4 million t</text></g><g class="AxisGridLines horizontalLines"><line x1="102.13" y1="524.9" x2="702.13" y2="524.9" stroke="#999"></line><line x1="102.13" y1="469.9" x2="702.13" y2="469.9" stroke="#ddd" stroke-dasharray="3,2"></line><line x1="102.13" y1="414.9" x2="702.13" y2="414.9" stroke="#ddd" stroke-dasharray="3,2"></line><line x1="102.13" y1="359.9" x2="702.13" y2="359.9" stroke="#ddd" stroke-dasharray="3,2"></line><line x1="102.13" y1="304.8" x2="702.13" y2="304.8" stroke="#ddd" stroke-dasharray="3,2"></line><line x1="102.13" y1="249.8" x2="702.13" y2="249.8" stroke="#ddd" stroke-dasharray="3,2"></line><line x1="102.13" y1="194.8" x2="702.13" y2="194.8" stroke="#ddd" stroke-dasharray="3,2"></line><line x1="102.13" y1="139.7" x2="702.13" y2="139.7" stroke="#ddd" stroke-dasharray="3,2"></line><line x1="102.13" y1="84.7" x2="702.13" y2="84.7" stroke="#ddd" stroke-dasharray="3,2"></line></g></g><g clip-path="url(#boundsClip-3)"><g class="LineLabels" style="cursor:default"><g class="legendMark"><g class="indicator"><path d="M706.125,78.1 H727.725 V84.23 H733.125" stroke="#999" stroke-width="0.5" fill="none"></path></g><rect x="702.125" y="77.48" width="113.30000000000001" height="13.5" fill="#fff" opacity="0"></rect><text font-size="13.50" font-weight="400" x="737.1" y="89.2" fill="#970046"><tspan x="737.125" y="89.22500000000001">Rodenticides</tspan></text></g><g class="legendMark"><g class="indicator"><path d="M706.125,81.5 H722.3249999999999 V106.48 H733.125" stroke="#999" stroke-width="0.5" fill="none"></path></g><rect x="702.125" y="92.98" width="110.33" height="27" fill="#fff" opacity="0"></rect><text font-size="13.50" font-weight="400" x="737.1" y="104.7" fill="#b16214"><tspan x="737.125" y="104.72500000000001">Plant growth</tspan><tspan x="737.125" y="118.22500000000001">regulators</tspan></text></g><g class="legendMark"><g class="indicator"><path d="M706.125,90.5 H716.925 V128.73000000000002 H733.125" stroke="#999" stroke-width="0.5" fill="none"></path></g><rect x="702.125" y="121.98" width="132.875" height="13.5" fill="#fff" opacity="0"></rect><text font-size="13.50" font-weight="400" x="737.1" y="133.7" fill="#b13507"><tspan x="737.125" y="133.725">Other pesticides</tspan></text></g><g class="legendMark"><g class="indicator"><path d="M706.125,135.3 H711.525 V144.23000000000002 H733.125" stroke="#999" stroke-width="0.5" fill="none"></path></g><rect x="702.125" y="137.48000000000002" width="105.74000000000001" height="13.5" fill="#fff" opacity="0"></rect><text font-size="13.50" font-weight="400" x="737.1" y="149.2" fill="#578145"><tspan x="737.125" y="149.22500000000002">Insecticides</tspan></text></g><g class="legendMark"><g class="indicator"><path d="M706.125,227 H719.625 V227 H733.125" stroke="#999" stroke-width="0.5" fill="none"></path></g><rect x="702.125" y="213.5" width="126.935" height="27" fill="#fff" opacity="0"></rect><text font-size="13.50" font-weight="400" x="737.1" y="225.2" fill="#883039"><tspan x="737.125" y="225.245">Fungicides and</tspan><tspan x="737.125" y="238.745">bactericides</tspan></text></g><g class="legendMark"><g class="indicator"><path d="M706.125,402.7 H719.625 V402.7 H733.125" stroke="#999" stroke-width="0.5" fill="none"></path></g><rect x="702.125" y="395.95" width="98.855" height="13.5" fill="#fff" opacity="0"></rect><text font-size="13.50" font-weight="400" x="737.1" y="407.7" fill="#4c6a9c"><tspan x="737.125" y="407.695">Herbicides</tspan></text></g></g><g class="Areas"><rect x="102.134" y="77.48" width="599.991" height="447.4599999999999" opacity="0" fill="rgba(255,255,255,0)"></rect><path class="Herbicides-area" stroke-linecap="round" d="M102.1 426.8L122.8 426.2L143.5 421.6L164.2 419.6L184.9 408.3L205.6 403.8L226.3 393.5L247 389.8L267.6 387.1L288.3 383.3L309 382.9L329.7 373.5L350.4 373.2L371.1 361.8L391.8 355.7L412.5 348L433.2 338.8L453.9 317.6L474.5 307.5L495.2 315.5L515.9 294.6L536.6 285.7L557.3 273.3L578 282.9L598.7 283.6L619.4 288.5L640.1 280.7L660.7 279.1L681.4 285.8L702.1 280.4L702.125 524.9399999999999L102.134 524.9399999999999" fill="#4C6A9C" fill-opacity="0.7"></path><path class="Fungicides-and-bactericides-area" stroke-linecap="round" d="M102.1 361.4L122.8 361.5L143.5 355.6L164.2 348.5L184.9 337.2L205.6 329.6L226.3 319L247 308.9L267.6 302.8L288.3 298.9L309 300.4L329.7 295.1L350.4 293.2L371.1 282.5L391.8 270.4L412.5 261.3L433.2 253.7L453.9 227.6L474.5 214.8L495.2 223.4L515.9 198.8L536.6 186.7L557.3 178.9L578 186.8L598.7 178.7L619.4 185.6L640.1 177.4L660.7 174.3L681.4 178.4L702.1 173.7L702.1 280.4L681.4 285.8L660.7 279.1L640.1 280.7L619.4 288.5L598.7 283.6L578 282.9L557.3 273.3L536.6 285.7L515.9 294.6L495.2 315.5L474.5 307.5L453.9 317.6L433.2 338.8L412.5 348L391.8 355.7L371.1 361.8L350.4 373.2L329.7 373.5L309 382.9L288.3 383.3L267.6 387.1L247 389.8L226.3 393.5L205.6 403.8L184.9 408.3L164.2 419.6L143.5 421.6L122.8 426.2L102.1 426.8" fill="#883039" fill-opacity="0.7"></path><path class="Insecticides-area" stroke-linecap="round" d="M102.1 297.2L122.8 298.3L143.5 293L164.2 285.8L184.9 270L205.6 257L226.3 243.7L247 234.6L267.6 233.5L288.3 226.2L309 228.8L329.7 228.2L350.4 224.4L371.1 214.7L391.8 194.7L412.5 186.1L433.2 182.4L453.9 150L474.5 141.7L495.2 148.8L515.9 119.5L536.6 111.8L557.3 107.2L578 112.2L598.7 101.8L619.4 111.1L640.1 102L660.7 98.6L681.4 102.5L702.1 96.9L702.1 173.7L681.4 178.4L660.7 174.3L640.1 177.4L619.4 185.6L598.7 178.7L578 186.8L557.3 178.9L536.6 186.7L515.9 198.8L495.2 223.4L474.5 214.8L453.9 227.6L433.2 253.7L412.5 261.3L391.8 270.4L371.1 282.5L350.4 293.2L329.7 295.1L309 300.4L288.3 298.9L267.6 302.8L247 308.9L226.3 319L205.6 329.6L184.9 337.2L164.2 348.5L143.5 355.6L122.8 361.5L102.1 361.4" fill="#578145" fill-opacity="0.7"></path><path class="Other-pesticides-area" stroke-linecap="round" d="M102.1 291.9L122.8 293.8L143.5 287.8L164.2 280.1L184.9 264L205.6 250.5L226.3 237.1L247 226.2L267.6 223.3L288.3 213.7L309 215.7L329.7 214.3L350.4 209.5L371.1 199L391.8 178.4L412.5 169.4L433.2 164.6L453.9 132.6L474.5 124.2L495.2 130.8L515.9 101.8L536.6 94L557.3 89.1L578 93.9L598.7 86.6L619.4 90.6L640.1 86.9L660.7 85L681.4 89.4L702.1 84.2L702.1 96.9L681.4 102.5L660.7 98.6L640.1 102L619.4 111.1L598.7 101.8L578 112.2L557.3 107.2L536.6 111.8L515.9 119.5L495.2 148.8L474.5 141.7L453.9 150L433.2 182.4L412.5 186.1L391.8 194.7L371.1 214.7L350.4 224.4L329.7 228.2L309 228.8L288.3 226.2L267.6 233.5L247 234.6L226.3 243.7L205.6 257L184.9 270L164.2 285.8L143.5 293L122.8 298.3L102.1 297.2" fill="#B13507" fill-opacity="0.7"></path><path class="Plant-growth-regulators-area" stroke-linecap="round" d="M102.1 288.7L122.8 290.5L143.5 284L164.2 276.7L184.9 260.4L205.6 246.1L226.3 232.7L247 223.1L267.6 220L288.3 210.4L309 211.9L329.7 210.2L350.4 205.6L371.1 195.1L391.8 174.2L412.5 165.3L433.2 160.1L453.9 128.3L474.5 120L495.2 126.9L515.9 98.3L536.6 88.7L557.3 83.3L578 88.3L598.7 81.2L619.4 85.5L640.1 81.7L660.7 79.2L681.4 84.2L702.1 78.8L702.1 84.2L681.4 89.4L660.7 85L640.1 86.9L619.4 90.6L598.7 86.6L578 93.9L557.3 89.1L536.6 94L515.9 101.8L495.2 130.8L474.5 124.2L453.9 132.6L433.2 164.6L412.5 169.4L391.8 178.4L371.1 199L350.4 209.5L329.7 214.3L309 215.7L288.3 213.7L267.6 223.3L247 226.2L226.3 237.1L205.6 250.5L184.9 264L164.2 280.1L143.5 287.8L122.8 293.8L102.1 291.9" fill="#B16214" fill-opacity="0.7"></path><path class="Rodenticides-area" stroke-linecap="round" d="M102.1 286.3L122.8 288.1L143.5 281.6L164.2 274.1L184.9 257.7L205.6 243.3L226.3 229.9L247 220.2L267.6 217.1L288.3 207.4L309 209L329.7 207.3L350.4 202.5L371.1 192.3L391.8 171.4L412.5 162.7L433.2 157L453.9 125.2L474.5 118.2L495.2 126.4L515.9 97.7L536.6 88L557.3 82.8L578 87.7L598.7 80.5L619.4 84.8L640.1 80.9L660.7 78.3L681.4 83.1L702.1 77.5L702.1 78.8L681.4 84.2L660.7 79.2L640.1 81.7L619.4 85.5L598.7 81.2L578 88.3L557.3 83.3L536.6 88.7L515.9 98.3L495.2 126.9L474.5 120L453.9 128.3L433.2 160.1L412.5 165.3L391.8 174.2L371.1 195.1L350.4 205.6L329.7 210.2L309 211.9L288.3 210.4L267.6 220L247 223.1L226.3 232.7L205.6 246.1L184.9 260.4L164.2 276.7L143.5 284L122.8 290.5L102.1 288.7" fill="#970046" fill-opacity="0.7"></path><path class="Herbicides-border" stroke-linecap="round" d="M102.1 426.8L122.8 426.2L143.5 421.6L164.2 419.6L184.9 408.3L205.6 403.8L226.3 393.5L247 389.8L267.6 387.1L288.3 383.3L309 382.9L329.7 373.5L350.4 373.2L371.1 361.8L391.8 355.7L412.5 348L433.2 338.8L453.9 317.6L474.5 307.5L495.2 315.5L515.9 294.6L536.6 285.7L557.3 273.3L578 282.9L598.7 283.6L619.4 288.5L640.1 280.7L660.7 279.1L681.4 285.8L702.1 280.4" stroke="rgb(64, 89, 131)" stroke-opacity="0.7" stroke-width="0.5" fill="none"></path><path class="Fungicides-and-bactericides-border" stroke-linecap="round" d="M102.1 361.4L122.8 361.5L143.5 355.6L164.2 348.5L184.9 337.2L205.6 329.6L226.3 319L247 308.9L267.6 302.8L288.3 298.9L309 300.4L329.7 295.1L350.4 293.2L371.1 282.5L391.8 270.4L412.5 261.3L433.2 253.7L453.9 227.6L474.5 214.8L495.2 223.4L515.9 198.8L536.6 186.7L557.3 178.9L578 186.8L598.7 178.7L619.4 185.6L640.1 177.4L660.7 174.3L681.4 178.4L702.1 173.7" stroke="rgb(114, 40, 48)" stroke-opacity="0.7" stroke-width="0.5" fill="none"></path><path class="Insecticides-border" stroke-linecap="round" d="M102.1 297.2L122.8 298.3L143.5 293L164.2 285.8L184.9 270L205.6 257L226.3 243.7L247 234.6L267.6 233.5L288.3 226.2L309 228.8L329.7 228.2L350.4 224.4L371.1 214.7L391.8 194.7L412.5 186.1L433.2 182.4L453.9 150L474.5 141.7L495.2 148.8L515.9 119.5L536.6 111.8L557.3 107.2L578 112.2L598.7 101.8L619.4 111.1L640.1 102L660.7 98.6L681.4 102.5L702.1 96.9" stroke="rgb(73, 108, 58)" stroke-opacity="0.7" stroke-width="0.5" fill="none"></path><path class="Other-pesticides-border" stroke-linecap="round" d="M102.1 291.9L122.8 293.8L143.5 287.8L164.2 280.1L184.9 264L205.6 250.5L226.3 237.1L247 226.2L267.6 223.3L288.3 213.7L309 215.7L329.7 214.3L350.4 209.5L371.1 199L391.8 178.4L412.5 169.4L433.2 164.6L453.9 132.6L474.5 124.2L495.2 130.8L515.9 101.8L536.6 94L557.3 89.1L578 93.9L598.7 86.6L619.4 90.6L640.1 86.9L660.7 85L681.4 89.4L702.1 84.2" stroke="rgb(148, 44, 6)" stroke-opacity="0.7" stroke-width="0.5" fill="none"></path><path class="Plant-growth-regulators-border" stroke-linecap="round" d="M102.1 288.7L122.8 290.5L143.5 284L164.2 276.7L184.9 260.4L205.6 246.1L226.3 232.7L247 223.1L267.6 220L288.3 210.4L309 211.9L329.7 210.2L350.4 205.6L371.1 195.1L391.8 174.2L412.5 165.3L433.2 160.1L453.9 128.3L474.5 120L495.2 126.9L515.9 98.3L536.6 88.7L557.3 83.3L578 88.3L598.7 81.2L619.4 85.5L640.1 81.7L660.7 79.2L681.4 84.2L702.1 78.8" stroke="rgb(148, 82, 17)" stroke-opacity="0.7" stroke-width="0.5" fill="none"></path><path class="Rodenticides-border" stroke-linecap="round" d="M102.1 286.3L122.8 288.1L143.5 281.6L164.2 274.1L184.9 257.7L205.6 243.3L226.3 229.9L247 220.2L267.6 217.1L288.3 207.4L309 209L329.7 207.3L350.4 202.5L371.1 192.3L391.8 171.4L412.5 162.7L433.2 157L453.9 125.2L474.5 118.2L495.2 126.4L515.9 97.7L536.6 88L557.3 82.8L578 87.7L598.7 80.5L619.4 84.8L640.1 80.9L660.7 78.3L681.4 83.1L702.1 77.5" stroke="rgb(126, 0, 59)" stroke-opacity="0.7" stroke-width="0.5" fill="none"></path></g></g></g><g class="SourcesFooter" style="fill:#777"><g style="fill:#777"><text font-size="12.60" x="15.0" y="582.7"><tspan x="15" y="582.732">Source: Food and Agriculture Organization of the United Nations</tspan></text></g><text font-size="12.60" x="610.3" y="582.7"><tspan x="610.342" y="582.732"><a target='_blank' style='fill: #777;' href='https://ourworldindata.org/pesticides'>OurWorldInData.org/pesticides</a> • <a style="fill: #777;" class="cclogo" href="http://creativecommons.org/licenses/by/4.0/deed.en_US" target="_blank">CC BY</a></tspan></text></g></svg>